<svg xmlns="http://www.w3.org/2000/svg" xmlns:xlink="http://www.w3.org/1999/xlink" fill="none" version="1.1" width="571.99755859375" height="123" viewBox="0 0 571.99755859375 123"><g style="mix-blend-mode:passthrough"><g style="mix-blend-mode:passthrough"><g><path d="M110.78236129432172,55.4006C110.78236129432172,52.4351,113.25336129432172,50.0088,116.27336129432172,50.0088L116.27336129432172,50.0762C119.29336129432171,50.0762,121.76436129432172,52.5025,121.76436129432172,55.4679L121.76436129432172,78.8548C121.76436129432172,81.0115,121.35236129432171,83.1682,120.46036129432171,85.1901C110.71436129432172,108.173,87.99566129432172,123,62.669061294321715,123C46.059261294321715,123,30.410361294321717,116.665,18.604961294321715,105.207C6.799661294321716,93.6822,0.21063929432171583,78.4504,0.004732384321715832,62.1403C-0.20117470567828416,45.7627,6.319211294321716,30.194,18.193161294321715,18.3321C30.135761294321714,6.53754,45.92196129432172,0,62.669061294321715,0C87.99566129432172,0,110.64536129432172,14.8274,120.52936129432172,37.8099L122.17636129432172,41.6515L109.75336129432172,51.0197C105.90936129432171,53.9178,101.03636129432172,55.131,96.30056129432171,54.3222C91.56466129432171,53.5134,87.51516129432171,50.9523,84.83836129432171,47.0433C79.89666129432172,39.7644,71.59176129432171,35.3836,62.669061294321715,35.3836C55.46236129432172,35.3836,48.736061294321715,38.2143,43.65696129432172,43.2691C38.646561294321714,48.3238,35.90116129432172,55.0636,36.10706129432172,62.1403C36.45026129432171,76.0915,48.255561294321716,87.4816,62.463161294321715,87.6164C71.52306129432172,87.6164,79.75936129432172,83.303,84.70116129432172,76.0915C87.44656129432171,72.1151,91.70196129432172,69.4192,96.43786129432172,68.6778C101.24236129432171,67.9364,105.90936129432171,69.0822,109.75336129432172,71.9803L110.64536129432172,72.6542L110.78236129432172,55.4006ZM93.89826129432171,41.0449C94.85916129432172,42.3929,96.30056129432171,43.3364,98.01646129432172,43.606L97.94776129432172,43.606C99.66366129432171,43.8756,101.51636129432171,43.4712,102.88936129432172,42.3929L108.44936129432172,38.2143C99.59506129432171,21.2301,82.09296129432171,10.7836,62.60046129432172,10.7836C48.87336129432172,10.7836,35.832561294321714,16.1753,26.017661294321716,25.948C16.202761294321714,35.7206,10.849161294321716,48.526,10.986461294321716,62.0729C11.260961294321715,89.7058,34.45986129432172,112.216,62.60046129432172,112.216C82.09296129432171,112.216,99.52646129432172,101.702,108.44936129432172,84.7858L102.88936129432172,80.6071C101.51636129432171,79.5288,99.80096129432171,79.1244,98.08506129432172,79.394C96.30056129432171,79.6636,94.72196129432172,80.6745,93.69236129432171,82.1573C86.69156129432172,92.3343,75.02346129432172,98.4,62.53176129432172,98.4L62.257261294321715,98.4C52.51096129432172,98.3326,43.24516129432172,94.5584,36.24436129432171,87.7512C29.243561294321715,80.9441,25.194061294321717,71.9129,24.988061294321717,62.3425C24.782161294321718,52.3003,28.557161294321716,42.7973,35.69526129432172,35.6531C42.83336129432172,28.509,52.37376129432172,24.5326,62.60046129432172,24.5326C75.22936129432172,24.5326,86.89746129432172,30.7332,93.89826129432171,41.0449ZM59.580061294321716,63.3534Q59.827661294321715,63.3534,60.07506129432171,63.3414Q60.32246129432171,63.3295,60.56896129432172,63.3057Q60.815461294321715,63.2818,61.06046129432172,63.2461Q61.30546129432172,63.2104,61.548361294321715,63.163Q61.791261294321714,63.1155,62.03156129432172,63.0564Q62.27176129432171,62.9974,62.50886129432172,62.9268Q62.74586129432171,62.8562,62.97906129432172,62.7742Q63.21226129432171,62.6923,63.44106129432171,62.5992Q63.66986129432171,62.5061,63.89376129432171,62.4021Q64.11766129432172,62.2982,64.33616129432171,62.1835Q64.55456129432172,62.0689,64.76706129432172,61.9438Q64.97946129432171,61.8188,65.18536129432172,61.6837Q65.39136129432171,61.5485,65.59026129432172,61.4037Q65.78926129432172,61.2588,65.98066129432172,61.1045Q66.17216129432171,60.9502,66.35566129432172,60.7869Q66.53916129432172,60.6235,66.71436129432172,60.4516Q66.88946129432172,60.2796,67.05576129432171,60.0994Q67.22216129432172,59.9192,67.37926129432172,59.7312Q67.53636129432172,59.5431,67.68396129432172,59.3478Q67.83146129432171,59.1524,67.96906129432172,58.9502Q68.10666129432171,58.748,68.23396129432172,58.5394Q68.36136129432171,58.3308,68.47806129432172,58.1163Q68.59486129432172,57.9018,68.70076129432172,57.6819Q68.80666129432171,57.4621,68.90146129432172,57.2374Q68.99616129432171,57.0127,69.07966129432171,56.7837Q69.16306129432172,56.5547,69.23496129432172,56.3219Q69.30686129432172,56.0892,69.36706129432172,55.8533Q69.42726129432171,55.6173,69.47556129432172,55.3788Q69.52386129432172,55.1403,69.56026129432172,54.8997Q69.59656129432172,54.6591,69.62086129432171,54.4171Q69.64516129432171,54.175,69.65726129432171,53.9321Q69.66946129432172,53.6892,69.66946129432172,53.446Q69.66946129432172,53.2028,69.65726129432171,52.9598Q69.64516129432171,52.7169,69.62086129432171,52.4749Q69.59656129432172,52.2328,69.56026129432172,51.9922Q69.52386129432172,51.7517,69.47556129432172,51.5131Q69.42726129432171,51.2746,69.36706129432172,51.0387Q69.30686129432172,50.8027,69.23496129432172,50.57Q69.16306129432172,50.3373,69.07966129432171,50.1083Q68.99616129432171,49.8793,68.90146129432172,49.6546Q68.80666129432171,49.4299,68.70076129432172,49.21Q68.59486129432172,48.9901,68.47806129432172,48.7757Q68.36136129432171,48.5612,68.23396129432172,48.3526Q68.10666129432171,48.1439,67.96906129432172,47.9417Q67.83146129432171,47.7395,67.68396129432172,47.5441Q67.53636129432172,47.3488,67.37926129432172,47.1608Q67.22206129432172,46.9728,67.05576129432171,46.7926Q66.88946129432172,46.6124,66.71436129432172,46.4404Q66.53916129432172,46.2684,66.35566129432172,46.1051Q66.17216129432171,45.9417,65.98066129432172,45.7874Q65.78916129432172,45.6332,65.59026129432172,45.4883Q65.39136129432171,45.3434,65.18536129432172,45.2083Q64.97946129432171,45.0731,64.76696129432172,44.9481Q64.55456129432172,44.8231,64.33616129432171,44.7084Q64.11766129432172,44.5938,63.89376129432171,44.4898Q63.66986129432171,44.3858,63.44106129432171,44.2927Q63.21226129432171,44.1997,62.97906129432172,44.1177Q62.74586129432171,44.0358,62.50886129432172,43.9652Q62.27176129432171,43.8946,62.03156129432172,43.8355Q61.791261294321714,43.7764,61.548361294321715,43.7289Q61.30546129432172,43.6815,61.06046129432172,43.6458Q60.815461294321715,43.6101,60.56896129432172,43.5863Q60.32246129432171,43.5624,60.07506129432171,43.5505Q59.827661294321715,43.5386,59.580061294321716,43.5386Q59.332361294321714,43.5386,59.084961294321715,43.5505Q58.837561294321716,43.5624,58.59106129432172,43.5863Q58.344561294321714,43.6101,58.09956129432172,43.6458Q57.85456129432172,43.6815,57.61166129432171,43.7289Q57.368761294321715,43.7764,57.12846129432172,43.8355Q56.888261294321715,43.8946,56.65116129432172,43.9652Q56.414161294321715,44.0358,56.18096129432172,44.1177Q55.947761294321715,44.1997,55.718961294321716,44.2927Q55.490161294321716,44.3858,55.26616129432172,44.4898Q55.042361294321715,44.5938,54.823861294321716,44.7084Q54.605461294321714,44.8231,54.392961294321715,44.9481Q54.18056129432171,45.0731,53.97466129432171,45.2083Q53.76866129432172,45.3434,53.569761294321715,45.4883Q53.37076129432172,45.6332,53.179361294321716,45.7874Q52.98786129432172,45.9417,52.804361294321716,46.1051Q52.62086129432171,46.2684,52.44566129432172,46.4404Q52.270561294321716,46.6124,52.10426129432172,46.7926Q51.93786129432171,46.9728,51.780761294321714,47.1608Q51.623661294321714,47.3488,51.47606129432172,47.5441Q51.328561294321716,47.7395,51.19096129432172,47.9417Q51.05336129432172,48.1439,50.925961294321716,48.3526Q50.79866129432172,48.5612,50.68196129432172,48.7757Q50.56516129432172,48.9901,50.45926129432171,49.21Q50.353361294321715,49.4299,50.258561294321716,49.6546Q50.163761294321716,49.8793,50.08036129432172,50.1083Q49.996961294321714,50.3373,49.925061294321715,50.57Q49.853161294321716,50.8027,49.792961294321714,51.0387Q49.73276129432172,51.2746,49.684461294321714,51.5131Q49.63616129432172,51.7517,49.599761294321716,51.9922Q49.56346129432172,52.2328,49.539161294321715,52.4749Q49.51486129432172,52.7169,49.502761294321715,52.9598Q49.490561294321715,53.2028,49.490561294321715,53.446Q49.490561294321715,53.6892,49.502761294321715,53.9321Q49.51486129432172,54.175,49.539161294321715,54.4171Q49.56346129432172,54.6591,49.599761294321716,54.8997Q49.63616129432172,55.1403,49.684461294321714,55.3788Q49.73276129432172,55.6173,49.792961294321714,55.8533Q49.853161294321716,56.0892,49.925061294321715,56.3219Q49.996961294321714,56.5547,50.08036129432172,56.7837Q50.163761294321716,57.0127,50.258561294321716,57.2374Q50.353361294321715,57.4621,50.45926129432171,57.6819Q50.56516129432172,57.9018,50.68196129432172,58.1163Q50.79866129432172,58.3308,50.925961294321716,58.5394Q51.05336129432172,58.748,51.19096129432172,58.9502Q51.328561294321716,59.1524,51.47606129432172,59.3478Q51.623661294321714,59.5431,51.780761294321714,59.7312Q51.93786129432171,59.9192,52.10426129432172,60.0994Q52.270561294321716,60.2796,52.44566129432172,60.4516Q52.62086129432171,60.6235,52.804361294321716,60.7869Q52.98786129432172,60.9502,53.179361294321716,61.1045Q53.37076129432172,61.2588,53.569761294321715,61.4037Q53.76866129432172,61.5485,53.97456129432172,61.6837Q54.18056129432171,61.8188,54.392961294321715,61.9438Q54.605461294321714,62.0689,54.823861294321716,62.1835Q55.04226129432172,62.2982,55.26616129432172,62.4021Q55.490161294321716,62.5061,55.718961294321716,62.5992Q55.947761294321715,62.6923,56.18096129432172,62.7742Q56.414161294321715,62.8562,56.65116129432172,62.9268Q56.888261294321715,62.9974,57.12846129432172,63.0564Q57.368761294321715,63.1155,57.61166129432171,63.163Q57.85456129432172,63.2104,58.09956129432172,63.2461Q58.344561294321714,63.2818,58.59106129432172,63.3057Q58.837561294321716,63.3295,59.084961294321715,63.3414Q59.332361294321714,63.3534,59.580061294321716,63.3534Z" fill-rule="evenodd" fill="#9561D8" fill-opacity="1"/></g></g><g style="mix-blend-mode:passthrough"><g><path d="M268.5662272949219,34.3259360168457L283.9862272949219,34.3259360168457L283.9862272949219,22.363636016845703L268.5662272949219,22.363636016845703L268.5662272949219,34.3259360168457ZM436.2822272949219,50.425736016845704L426.7582272949219,50.425736016845704L426.7582272949219,72.14303601684571C426.7582272949219,73.9261360168457,427.21122729492185,75.12923601684571,428.11522729492185,75.7784360168457C429.0202272949219,76.4189360168457,430.4112272949219,76.7478360168457,432.28822729492185,76.7478360168457C432.70622729492186,76.7478360168457,433.3462272949219,76.7219360168457,434.1912272949219,76.6526360168457C435.09522729492187,76.5920360168457,435.79522729492186,76.55743601684571,436.2822272949219,76.55743601684571L436.2822272949219,88.0609360168457C435.49722729492186,88.0609360168457,434.28522729492187,88.12153601684571,432.6552272949219,88.2427360168457C430.5392272949219,88.4244360168457,428.93422729492187,88.5197360168457,427.8512272949219,88.5197360168457C424.52322729492187,88.5197360168457,421.80022729492185,88.2427360168457,419.68422729492187,87.68873601684571C417.5682272949219,87.13473601684571,415.9042272949219,86.23453601684571,414.69222729492185,84.97083601684571C413.48022729492186,83.71573601684571,412.6182272949219,82.0278360168457,412.1062272949219,79.9072360168457C411.5942272949219,77.7952360168457,411.33822729492186,75.0426360168457,411.33822729492186,71.6756360168457L411.33822729492186,50.425736016845704L403.5392272949219,50.425736016845704L403.5392272949219,40.3071360168457L411.33822729492186,40.3071360168457L411.33822729492186,25.860706016845704L426.7582272949219,25.860706016845704L426.7582272949219,40.3071360168457L436.2822272949219,40.3071360168457L436.2822272949219,50.425736016845704ZM571.9972272949219,50.425736016845704L562.4742272949219,50.425736016845704L562.4742272949219,72.14303601684571C562.4742272949219,73.9261360168457,562.9262272949219,75.12923601684571,563.8312272949219,75.7784360168457C564.7352272949219,76.4189360168457,566.1262272949218,76.7478360168457,568.0042272949219,76.7478360168457C568.4222272949219,76.7478360168457,569.0622272949219,76.7219360168457,569.9072272949219,76.6526360168457C570.8112272949219,76.5920360168457,571.5112272949218,76.55743601684571,571.9972272949219,76.55743601684571L571.9972272949219,88.0609360168457C571.2122272949218,88.0609360168457,570.0012272949218,88.12153601684571,568.3712272949219,88.2427360168457C566.2542272949219,88.4244360168457,564.6502272949219,88.5197360168457,563.5662272949219,88.5197360168457C560.2382272949219,88.5197360168457,557.5162272949219,88.2427360168457,555.4002272949219,87.68873601684571C553.284227294922,87.13473601684571,551.6202272949218,86.23453601684571,550.4082272949219,84.97083601684571C549.1962272949219,83.71573601684571,548.3342272949219,82.0278360168457,547.822227294922,79.9072360168457C547.3102272949219,77.7952360168457,547.0542272949219,75.0426360168457,547.0542272949219,71.6756360168457L547.0542272949219,50.425736016845704L539.255227294922,50.425736016845704L539.255227294922,40.3071360168457L547.0542272949219,40.3071360168457L547.0542272949219,25.860706016845704L562.4742272949219,25.860706016845704L562.4742272949219,40.3071360168457L571.9972272949219,40.3071360168457L571.9972272949219,50.425736016845704ZM188.40272729492187,57.783236016845706C188.34292729492188,55.818336016845706,187.57492729492188,54.1824360168457,186.09012729492187,52.8580360168457C184.60532729492186,51.5424360168457,182.87302729492188,50.8759360168457,180.87622729492188,50.8759360168457C178.87932729492186,50.8759360168457,177.12152729492186,51.2740360168457,175.79882729492186,52.070436016845704C174.46762729492187,52.86673601684571,173.45212729492187,53.9400360168457,172.76092729492188,55.2903360168457C172.06112729492187,56.640636016845704,171.58332729492187,58.1121360168457,171.31022729492187,59.7047360168457C171.03712729492187,61.2974360168457,170.9006272949219,63.0459360168457,170.9006272949219,64.9501360168457C170.9006272949219,68.3865360168457,171.66862729492186,71.3294360168457,173.2131272949219,73.77903601684571C174.75772729492186,76.22863601684571,177.03612729492187,77.4577360168457,180.06552729492188,77.4577360168457C182.66822729492188,77.4577360168457,184.69062729492188,76.7566360168457,186.14132729492187,75.3457360168457C187.59202729492188,73.93483601684571,188.49652729492186,71.9094360168457,188.86352729492188,69.2693360168457L203.83112729492188,69.2693360168457C203.16552729492187,75.5275360168457,200.65672729492186,80.4526360168457,196.3046272949219,84.0361360168457C191.95262729492188,87.6195360168457,186.56802729492188,89.4199360168457,180.15942729492187,89.4199360168457C176.65212729492188,89.4199360168457,173.38382729492187,88.8400360168457,170.36302729492186,87.6715360168457C167.34212729492188,86.5030360168457,164.72239729492188,84.8324360168457,162.52077729492188,82.6598360168457C160.31061729492188,80.48723601684571,158.5868672949219,77.87323601684571,157.34951729492187,74.8350360168457C156.11216829492187,71.7968360168457,155.48922729492188,68.49903601684571,155.48922729492188,64.9415360168457C155.48922729492188,61.1416360168457,156.06096729492188,57.644736016845705,157.21297729492187,54.4507360168457Q158.94099729492189,49.672736016845704,162.20503729492188,46.1671360168457C164.38106729492188,43.8387360168457,166.98372729492186,42.03843601684571,170.00462729492187,40.7833360168457C173.02542729492188,39.5282360168457,176.41322729492188,38.8963360168457,180.16792729492187,38.8963360168457C186.33762729492187,38.8963360168457,191.6112272949219,40.540936016845706,195.99742729492186,43.8214360168457C200.38362729492187,47.1020360168457,202.84982729492188,51.7501360168457,203.38742729492188,57.7572360168457L188.41972729492187,57.7572360168457L188.40272729492187,57.783236016845706ZM210.33372729492186,54.242936016845704C211.54542729492186,51.14413601684571,213.25212729492188,48.4435360168457,215.46232729492186,46.14973601684571C217.67242729492187,43.8473360168457,220.30072729492187,42.0729360168457,223.35572729492188,40.8091360168457C226.41072729492186,39.5541360168457,229.7217272949219,38.9222360168457,233.28862729492187,38.9222360168457C236.85562729492187,38.9222360168457,240.16662729492188,39.5541360168457,243.22152729492188,40.8091360168457C246.2765272949219,42.064236016845705,248.9219272949219,43.8473360168457,251.1576272949219,46.14973601684571C253.39342729492188,48.4522360168457,255.11722729492186,51.152836016845704,256.3292272949219,54.242936016845704C257.54022729492186,57.341636016845705,258.14622729492186,60.6654360168457,258.14622729492186,64.2230360168457C258.14622729492186,67.7805360168457,257.54022729492186,71.0956360168457,256.3292272949219,74.1598360168457C255.11722729492186,77.2239360168457,253.41052729492188,79.9072360168457,251.20032729492186,82.2096360168457C248.99012729492188,84.51203601684571,246.34482729492186,86.2865360168457,243.26422729492188,87.5502360168457C240.18362729492188,88.8139360168457,236.85562729492187,89.4371360168457,233.28862729492187,89.4371360168457C229.72162729492186,89.4371360168457,226.41072729492186,88.8053360168457,223.35572729492188,87.5502360168457C220.30072729492187,86.2951360168457,217.67242729492187,84.51203601684571,215.46232729492186,82.2096360168457C213.25212729492188,79.9072360168457,211.54542729492186,77.2239360168457,210.33372729492186,74.1598360168457C209.12192729492187,71.0956360168457,208.5161272949219,67.7805360168457,208.5161272949219,64.2230360168457C208.5161272949219,60.6654360168457,209.12192729492187,57.341636016845705,210.33372729492186,54.242936016845704ZM311.6512272949219,40.30683601684571L296.68322729492183,40.30683601684571L296.68322729492183,88.0605360168457L312.1032272949219,88.0605360168457L312.1032272949219,62.024036016845706C312.1032272949219,59.141736016845705,312.81222729492185,56.718136016845705,314.23722729492187,54.753236016845705C315.65322729492186,52.788336016845705,317.7272272949219,51.81023601684571,320.4492272949219,51.81023601684571C323.7772272949219,51.81023601684571,325.89322729492187,52.8057360168457,326.79822729492184,54.7965360168457C327.70222729492184,56.796036016845704,328.1552272949219,60.180436016845704,328.1552272949219,64.9670360168457L328.1552272949219,88.0605360168457L343.5752272949219,88.0605360168457L343.5752272949219,57.4192360168457C343.5752272949219,55.2120360168457,343.3872272949219,53.10863601684571,343.02822729492186,51.1178360168457C342.6702272949219,49.1183360168457,341.92822729492184,47.188136016845704,340.8102272949219,45.3184360168457Q339.1332272949219,42.51403601684571,335.6382272949219,40.7222360168457C333.30922729492187,39.52773601684571,330.29722729492187,38.93053601684571,326.61022729492186,38.93053601684571C323.7092272949219,38.93053601684571,320.86722729492186,39.6576360168457,318.0852272949219,41.094436016845705C315.30322729492184,42.5313360168457,313.22122729492185,44.452936016845705,311.8302272949219,46.841836016845704L311.6512272949219,46.841836016845704L311.6512272949219,40.30683601684571ZM367.6132272949219,72.33303601684571L367.6132272949219,72.32443601684571L367.63922729492185,72.33303601684571L367.6132272949219,72.33303601684571ZM367.6132272949219,72.33303601684571L352.9442272949219,72.33303601684571C353.06422729492186,75.5270360168457,353.7802272949219,78.23633601684571,355.07722729492184,80.4781360168457C356.37522729492184,82.71993601684571,358.11522729492185,84.5030360168457,360.2912272949219,85.8187360168457C362.4672272949219,87.1344360168457,364.87422729492187,88.06923601684571,367.5022272949219,88.62323601684571C370.13022729492184,89.17713601684571,372.9642272949219,89.45413601684571,375.9842272949219,89.45413601684571C378.82622729492186,89.45413601684571,381.5742272949219,89.1512360168457,384.2362272949219,88.5366360168457C386.89922729492184,87.9221360168457,389.29722729492187,86.9526360168457,391.44722729492184,85.63693601684571C393.5972272949219,84.3213360168457,395.32122729492187,82.5555360168457,396.6182272949219,80.3483360168457C397.9242272949219,78.1411360168457,398.57222729492184,75.5010360168457,398.57222729492184,72.4369360168457C398.57222729492184,71.3290360168457,398.3762272949219,70.1345360168457,397.9842272949219,68.8448360168457C397.58222729492184,67.5551360168457,396.93422729492187,66.3000360168457,396.02922729492184,65.0709360168457C395.1162272949219,63.8417360168457,393.87922729492186,62.725236016845706,392.30922729492187,61.7124360168457C390.73022729492186,60.699736016845705,388.82722729492184,59.9813360168457,386.59122729492185,59.5485360168457C385.6272272949219,59.297536016845704,384.1762272949219,59.0292360168457,382.2392272949219,58.717536016845706C380.3712272949219,58.354036016845704,378.67222729492187,57.9991360168457,377.1622272949219,57.6615360168457C375.6522272949219,57.3240360168457,374.30322729492184,56.943136016845706,373.1262272949219,56.510336016845706C371.9482272949219,56.0862360168457,370.99222729492186,55.540936016845706,370.2672272949219,54.9004360168457C369.53322729492186,54.2598360168457,369.1752272949219,53.5068360168457,369.1752272949219,52.6499360168457C369.1752272949219,51.17843601684571,369.83222729492184,50.208936016845705,371.12922729492186,49.750236016845705C372.4262272949219,49.29143601684571,373.9792272949219,49.0577360168457,375.79722729492187,49.0577360168457C377.8532272949219,49.0577360168457,379.4832272949219,49.455936016845705,380.6952272949219,50.2522360168457C382.0262272949219,51.1091360168457,382.69222729492185,52.4854360168457,382.69222729492185,54.3897360168457L396.93422729492187,54.3897360168457C396.81422729492186,51.386136016845704,396.1322272949219,48.8673360168457,394.89422729492185,46.84193601684571C393.6572272949219,44.825136016845704,392.01022729492183,43.2411360168457,389.9542272949219,42.107236016845704C387.8972272949219,40.97333601684571,385.63622729492187,40.1596360168457,383.1522272949219,39.6662360168457C380.6692272949219,39.1729360168457,378.0412272949219,38.93053601684571,375.25922729492186,38.93053601684571C372.7762272949219,38.93053601684571,370.28422729492183,39.1729360168457,367.7752272949219,39.6662360168457Q364.0122272949219,40.3933360168457,360.8372272949219,42.055236016845704C358.71322729492186,43.154536016845704,357.00622729492187,44.677936016845706,355.7092272949219,46.608136016845705C354.40322729492186,48.5470360168457,353.75522729492184,50.97933601684571,353.75522729492184,53.5587360168457C353.75522729492184,56.138136016845706,354.2242272949219,58.2848360168457,355.16322729492185,59.9986360168457C356.10122729492184,61.7124360168457,357.35622729492184,63.0800360168457,358.9262272949219,64.0928360168457C360.4962272949219,65.1055360168457,362.1862272949219,65.8845360168457,364.0032272949219,66.4385360168457C365.81222729492185,66.9924360168457,368.1762272949219,67.5724360168457,371.0782272949219,68.1869360168457C373.25422729492186,68.6197360168457,374.76422729492185,68.9573360168457,375.6092272949219,69.1997360168457C375.8482272949219,69.26023601684571,376.09522729492187,69.3208360168457,376.3342272949219,69.3814360168457C378.39122729492186,69.80563601684571,380.03822729492185,70.35953601684571,381.2752272949219,71.0347360168457C382.5122272949219,71.70983601684571,383.13522729492183,72.7831360168457,383.13522729492183,74.2546360168457C383.13522729492183,75.9685360168457,382.3762272949219,77.2408360168457,380.86522729492185,78.07183601684571C379.34622729492185,78.9028360168457,377.6912272949219,79.3182360168457,375.8732272949219,79.3182360168457C373.51022729492183,79.3182360168457,371.60722729492187,78.7729360168457,370.1562272949219,77.6650360168457C368.4602272949219,76.3769360168457,367.61522729492185,74.59673601684571,367.6132272949219,72.33303601684571ZM449.0482272949219,47.3439360168457C447.74222729492186,49.4645360168457,447.0342272949219,52.0266360168457,446.9142272949219,55.030236016845706L446.9232272949219,55.030236016845706L461.3442272949219,55.030236016845706C462.0782272949219,51.0399360168457,464.6472272949219,49.04913601684571,469.0582272949219,49.04913601684571C470.9362272949219,49.04913601684571,472.64322729492187,49.4646360168457,474.18722729492185,50.2955360168457C475.73222729492187,51.1178360168457,476.5002272949219,52.3642360168457,476.5002272949219,54.0175360168457C476.5002272949219,55.4284360168457,476.17522729492185,56.441136016845704,475.5442272949219,57.0556360168457C474.9042272949219,57.661636016845705,473.8632272949219,58.1290360168457,472.4122272949219,58.431936016845704C471.1492272949219,58.6743360168457,469.0582272949219,59.0205360168457,466.1572272949219,59.444636016845706C462.82922729492185,59.868836016845705,460.06422729492186,60.327536016845706,457.8542272949219,60.8209360168457C455.6522272949219,61.3143360168457,453.56222729492185,62.0846360168457,451.5992272949219,63.123336016845705C449.63622729492187,64.1707360168457,448.0492272949219,65.6595360168457,446.8372272949219,67.5897360168457C445.6262272949219,69.5286360168457,445.0202272949219,71.9955360168457,445.0202272949219,74.99903601684571C445.0202272949219,79.72513601684571,446.5132272949219,83.3172360168457,449.5082272949219,85.7668360168457C452.50422729492186,88.2164360168457,456.3522272949219,89.44553601684571,461.07122729492187,89.44553601684571C464.0322272949219,89.44553601684571,466.88222729492185,88.9694360168457,469.63922729492185,88.0173360168457C472.38622729492187,87.0651360168457,474.69922729492185,85.5763360168457,476.57622729492186,83.5509360168457C476.8152272949219,85.5157360168457,477.1232272949219,87.0219360168457,477.4812272949219,88.0605360168457L492.99522729492185,88.0605360168457C492.2102272949219,86.4073360168457,491.7152272949219,84.6415360168457,491.5012272949219,82.7719360168457C491.28822729492185,80.8936360168457,491.1862272949219,78.5825360168457,491.1862272949219,75.8213360168457L491.1862272949219,54.9350360168457Q491.1862272949219,50.066136016845704,489.4192272949219,46.885136016845706C488.24222729492186,44.7645360168457,486.62022729492185,43.1285360168457,484.56422729492186,41.960036016845706C482.50722729492185,40.8001360168457,480.2122272949219,40.0038360168457,477.6692272949219,39.5710360168457C475.1262272949219,39.1469360168457,472.3102272949219,38.93053601684571,469.2292272949219,38.93053601684571Q464.87722729492185,38.93053601684571,461.0632272949219,39.7095360168457C458.52822729492186,40.22893601684571,456.2582272949219,41.0685360168457,454.26122729492187,42.23703601684571C452.0852272949219,43.5267360168457,450.34522729492187,45.23193601684571,449.0482272949219,47.3439360168457ZM518.6642272949218,40.3070360168457L503.69622729492187,40.3070360168457L503.69622729492187,88.0608360168457L519.1162272949218,88.0608360168457L519.1162272949218,64.4133360168457C519.1162272949218,61.2279360168457,520.1402272949219,58.544736016845704,522.197227294922,56.363436016845704C524.2532272949219,54.19083601684571,527.0952272949219,53.1002360168457,530.7212272949218,53.1002360168457C532.4112272949219,53.1002360168457,534.3822272949219,53.40313601684571,536.6182272949219,54.0177360168457L536.6182272949219,39.7530360168457C535.5942272949219,39.5107360168457,534.3822272949219,39.3895360168457,532.9912272949218,39.3895360168457Q528.0122272949219,39.3895360168457,524.2872272949219,41.778536016845706C521.8042272949219,43.3711360168457,519.9952272949218,45.673636016845705,518.8432272949219,48.67713601684571L518.6642272949218,48.67713601684571L518.6642272949218,40.3070360168457ZM283.9862272949219,40.3070360168457L268.5662272949219,40.3070360168457L268.5662272949219,88.06073601684571L283.9862272949219,88.06073601684571L283.9862272949219,40.3070360168457ZM224.43952729492187,69.0096360168457C224.77232729492187,70.5417360168457,225.30132729492186,71.9525360168457,226.02672729492187,73.24223601684571C226.75202729492187,74.5319360168457,227.71632729492188,75.5620360168457,228.9280272949219,76.3237360168457C230.13982729492187,77.0940360168457,231.59052729492186,77.4749360168457,233.28012729492187,77.4749360168457C234.96972729492188,77.4749360168457,236.4375272949219,77.09413601684571,237.68332729492187,76.3237360168457C238.92072729492187,75.5533360168457,239.90202729492188,74.5320360168457,240.62742729492186,73.24223601684571C241.35272729492186,71.9525360168457,241.8818272949219,70.5243360168457,242.21462729492185,68.9663360168457C242.54742729492187,67.3996360168457,242.70952729492188,65.8243360168457,242.70952729492188,64.2316360168457C242.70952729492188,62.638936016845705,242.53892729492188,61.0549360168457,242.21462729492185,59.4969360168457C241.8818272949219,57.930236016845704,241.35272729492186,56.493436016845706,240.62742729492186,55.1690360168457C239.90202729492188,53.853436016845706,238.92072729492187,52.8060360168457,237.68332729492187,52.044336016845705C236.44602729492186,51.2739360168457,234.97822729492188,50.8931360168457,233.28012729492187,50.8931360168457C231.58192729492185,50.8931360168457,230.13122729492187,51.2739360168457,228.9280272949219,52.044336016845705C227.71632729492188,52.8147360168457,226.75202729492187,53.8361360168457,226.02672729492187,55.1258360168457C225.30132729492186,56.41553601684571,224.77232729492187,57.8437360168457,224.43942729492187,59.4017360168457C224.10662729492188,60.9684360168457,223.94452729492187,62.5784360168457,223.94452729492187,64.2316360168457C223.94452729492187,65.8848360168457,224.10662729492188,67.48623601684571,224.43942729492187,69.0182360168457L224.43952729492187,69.0096360168457ZM466.86522729492185,79.7770360168457C464.9882272949219,79.7770360168457,463.4522272949219,79.33553601684571,462.24022729492185,78.4440360168457L462.24922729492187,78.4353360168457C461.0372272949219,77.5438360168457,460.4312272949219,76.18483601684571,460.4312272949219,74.3412360168457C460.4312272949219,72.6273360168457,461.0032272949219,71.30303601684571,462.1552272949219,70.3855360168457C463.2982272949219,69.4680360168457,464.84322729492186,68.7669360168457,466.7802272949219,68.2735360168457C467.5052272949219,68.0831360168457,468.7172272949219,67.8147360168457,470.4072272949219,67.44253601684571C471.7982272949219,67.20023601684571,472.95822729492187,66.9492360168457,473.8972272949219,66.7068360168457C474.83622729492185,66.4644360168457,475.6382272949219,66.1269360168457,476.3032272949219,65.6941360168457C476.3032272949219,70.8529360168457,475.5872272949219,74.4883360168457,474.17022729492186,76.6003360168457C472.74522729492185,78.7210360168457,470.3132272949219,79.7770360168457,466.86522729492185,79.7770360168457Z" fill-rule="evenodd" fill="#9561D8" fill-opacity="1"/></g></g></g></svg>