<svg xmlns="http://www.w3.org/2000/svg" xmlns:xlink="http://www.w3.org/1999/xlink" fill="none" version="1.1" width="504" height="122" viewBox="0 0 504 122">
<defs><linearGradient id="grad1"><stop offset="0%" stop-color="#8A38F5"/><stop offset="100%" stop-color="#4B56EE"/></linearGradient></defs>
<g style="mix-blend-mode:passthrough"><path d="M41.8906,98C54.7969,98,65.2031,93.3125,72,84.8125L59.3906,73.5781C55,78.7656,49.5938,81.6094,42.8906,81.6094C31.3906,81.6094,23.3906,73.7656,23.3906,62.0156C23.3906,50.25,31.3906,42.4062,42.8906,42.4062C49.5938,42.4062,55,45.25,59.3906,50.4531L72,39C65.2031,30.7031,54.7969,26,41.8906,26C19.6875,26,3.39062,41.1094,3.39062,62.0156C3.39062,82.9062,19.6875,98,41.8906,98ZM107.297,98C125.203,98,137.891,86.3125,137.891,69.9062C137.891,53.6094,125.203,42,107.297,42C89.5938,42,76.6875,53.6094,76.6875,69.9062C76.6875,86.3125,89.5938,98,107.297,98ZM107.297,82.9062C100.891,82.9062,95.8906,78.2031,95.8906,69.9062C95.8906,61.7031,100.891,57.1094,107.297,57.1094C113.797,57.1094,118.688,61.7031,118.688,69.9062C118.688,78.2031,113.797,82.9062,107.297,82.9062ZM156.594,37C163.594,37,168.188,32.6094,168.188,26.6094C168.188,20.9062,163.594,16.8125,156.594,16.8125C149.594,16.8125,145,21.2031,145,26.9062C145,32.6094,149.594,37,156.594,37ZM147.094,97L166.094,97L166.094,43L147.094,43L147.094,97ZM213.391,42C206.594,42,200.5,44.3125,196.188,48.8125L196.188,43L178.094,43L178.094,97L197.094,97L197.094,70.9375C197.094,61.8906,201.797,58.1094,207.891,58.1094C213.391,58.1094,216.797,61.3906,216.797,69.1719L216.797,97L235.797,97L235.797,66.0938C235.797,49.3125,226.094,42,213.391,42ZM273.594,98C294.391,98,304.594,87.6094,304.594,75.7969C304.594,50.3594,264.891,58.3438,264.891,47.6719C264.891,44.1875,267.891,41.4062,276.188,41.4062C282.297,41.4062,288.891,43.2031,295.594,46.7812L301.703,32.1094C294.797,28.1094,285.391,26,276.297,26C255.5,26,245.297,36.2031,245.297,48.6719C245.297,74.3906,285.094,66.5312,285.094,77.2188C285.094,80.4375,281.891,82.6094,273.688,82.6094C265.594,82.6094,256.797,79.9531,250.594,76.0781L244.094,90.3125C250.688,94.9062,262.094,98,273.594,98ZM345.797,81.5938C344.188,82.7031,342.094,83.3125,340,83.3125C336.594,83.3125,334.297,81.0938,334.297,77.0781L334.297,59L346.688,59L346.688,44.8125L334.297,44.8125L334.297,30.7031L315.297,30.7031L315.297,44.8125L307.391,44.8125L307.391,59L315.297,59L315.297,77.2812C315.297,91.2031,323.391,98,337.297,98C342.297,98,347.188,97,350.5,94.9062L345.797,81.5938ZM381.188,42C372.688,42,363.5,44.2031,357.297,48.3125L363.688,61.2031C367.391,58.3125,373.188,56.5156,378.391,56.5156C385.891,56.5156,389.594,59.6094,389.891,65.1094L379.094,65.1094C362.297,65.1094,355,71.3125,355,81.3125C355,90.7031,362.188,98,375.188,98C383.094,98,388.5,95.3125,391.188,90.1094L391.188,97L408.891,97L408.891,67C408.891,49.8125,398.797,42,381.188,42ZM380.5,86C376,86,373.391,83.7031,373.391,80.5C373.391,77.2031,375.594,75,381.688,75L389.891,75L389.891,79.7031C388.391,84,384.688,86,380.5,86ZM439.188,49.3906L439.188,43L421.094,43L421.094,97L440.094,97L440.094,72.2031C440.094,62.7969,445.391,58.9062,453.094,58.9062C454.5,58.9062,455.688,59.0156,457.391,59.2031L457.391,42C449.391,42,443.094,44.5,439.188,49.3906ZM497.797,81.5938C496.188,82.7031,494.094,83.3125,492,83.3125C488.594,83.3125,486.297,81.0938,486.297,77.0781L486.297,59L498.688,59L498.688,44.8125L486.297,44.8125L486.297,30.7031L467.297,30.7031L467.297,44.8125L459.391,44.8125L459.391,59L467.297,59L467.297,77.2812C467.297,91.2031,475.391,98,489.297,98C494.297,98,499.188,97,502.5,94.9062L497.797,81.5938Z"
fill="url(#grad1)" fill-opacity="1"/></g></svg>